<svg width="1099" height="1080" viewBox="0 0 1099 1080" fill="none" xmlns="http://www.w3.org/2000/svg">
<rect width="1099" height="1080" fill="url(#paint0_linear_80_301)"/>
<path d="M351.233 615.35C347.009 599.329 330.596 589.767 314.575 593.992L53.5006 662.839C37.4798 667.064 27.9172 683.476 32.142 699.497C36.3668 715.518 52.7792 725.08 68.8 720.855L300.866 659.658L362.064 891.724C366.289 907.745 382.701 917.308 398.722 913.083C414.743 908.858 424.305 892.446 420.081 876.425L351.233 615.35ZM-14.0789 1259.79L348.146 638.103L296.304 607.897L-65.9211 1229.59L-14.0789 1259.79Z" fill="#3B3F3E"/>
<path d="M803.399 927.625C799.878 914.274 786.201 906.306 772.85 909.826L555.288 967.199C541.937 970.72 533.969 984.397 537.489 997.747C541.01 1011.1 554.687 1019.07 568.038 1015.55L761.426 964.548L812.424 1157.94C815.945 1171.29 829.622 1179.26 842.973 1175.74C856.323 1172.22 864.292 1158.54 860.771 1145.19L803.399 927.625ZM438.601 1568.28L800.826 946.586L757.624 921.414L395.399 1543.1L438.601 1568.28Z" fill="#3B3F3E"/>
<path d="M527.656 558.909C525.397 550.939 517.104 546.309 509.134 548.569L379.252 585.388C371.282 587.648 366.653 595.941 368.912 603.911C371.171 611.881 379.464 616.511 387.434 614.251L502.885 581.522L535.614 696.973C537.873 704.943 546.166 709.573 554.136 707.313C562.106 705.054 566.736 696.761 564.476 688.791L527.656 558.909ZM112.097 1312.31L526.322 570.312L500.128 555.688L85.9027 1297.69L112.097 1312.31Z" fill="#3B3F3E"/>
<path d="M721.656 780.909C719.397 772.939 711.104 768.309 703.134 770.569L573.252 807.388C565.282 809.648 560.653 817.941 562.912 825.911C565.171 833.881 573.464 838.511 581.434 836.251L696.885 803.522L729.614 918.973C731.873 926.943 740.166 931.573 748.136 929.313C756.106 927.054 760.736 918.761 758.476 910.791L721.656 780.909ZM306.097 1534.31L720.322 792.312L694.128 777.688L279.903 1519.69L306.097 1534.31Z" fill="#3B3F3E"/>
<path d="M507.441 817.954C506.311 813.969 502.165 811.655 498.18 812.784L433.239 831.194C429.254 832.324 426.939 836.47 428.069 840.455C429.198 844.44 433.345 846.755 437.33 845.625L495.055 829.261L511.419 886.986C512.549 890.971 516.696 893.286 520.681 892.157C524.666 891.027 526.98 886.88 525.851 882.895L507.441 817.954ZM92.5487 1565.66L506.774 823.656L493.676 816.344L79.4513 1558.34L92.5487 1565.66Z" fill="#3B3F3E"/>
<path d="M503.592 981.045C503.065 979.186 501.13 978.105 499.271 978.633L468.965 987.224C467.105 987.751 466.025 989.686 466.552 991.546C467.079 993.406 469.014 994.486 470.874 993.959L497.812 986.322L505.449 1013.26C505.976 1015.12 507.911 1016.2 509.771 1015.67C511.631 1015.15 512.711 1013.21 512.184 1011.35L503.592 981.045ZM89.056 1725.71L503.281 983.706L497.169 980.294L82.944 1722.29L89.056 1725.71Z" fill="#3B3F3E"/>
<defs>
<linearGradient id="paint0_linear_80_301" x1="549.5" y1="0" x2="549.5" y2="1080" gradientUnits="userSpaceOnUse">
<stop stop-color="#2EF3B8"/>
<stop offset="1" stop-color="#3B3F3E"/>
</linearGradient>
</defs>
</svg>
