<svg width="41" height="41" viewBox="0 0 41 41" fill="none" xmlns="http://www.w3.org/2000/svg">
<path d="M27.7794 21.7766C29.7752 20.2091 31.232 18.0596 31.9469 15.6269C32.6621 13.1944 32.5998 10.5998 31.769 8.20414C30.9382 5.80854 29.3801 3.731 27.3114 2.26058C25.2427 0.790182 22.7663 0 20.2269 0C17.6874 0 15.2111 0.790182 13.1424 2.26058C11.0738 3.731 9.51569 5.80854 8.68486 8.20414C7.85402 10.5998 7.79179 13.1944 8.50683 15.6269C9.22188 18.0596 10.6786 20.2091 12.6744 21.7766C9.25457 23.1445 6.27064 25.4131 4.04074 28.3408C1.81082 31.2682 0.418533 34.745 0.0122857 38.4005C-0.0171304 38.6675 0.00640234 38.9374 0.0815406 39.1953C0.156679 39.453 0.281936 39.6936 0.450188 39.9031C0.789969 40.326 1.28416 40.5971 1.82407 40.6563C2.36396 40.7156 2.90536 40.5583 3.32912 40.2191C3.75289 39.8799 4.02431 39.3867 4.08371 38.8475C4.53072 34.8749 6.42821 31.2059 9.41366 28.5416C12.399 25.8773 16.2632 24.4045 20.2676 24.4045C24.2721 24.4045 28.1361 25.8773 31.1217 28.5416C34.107 31.2059 36.0045 34.8749 36.4516 38.8475C36.5069 39.3471 36.7455 39.8082 37.1215 40.1423C37.4975 40.4762 37.9841 40.6593 38.4873 40.6563H38.7112C39.2448 40.5951 39.7325 40.3256 40.0682 39.907C40.4037 39.4881 40.5598 38.954 40.5026 38.4208C40.0945 34.755 38.6947 31.2693 36.4532 28.3371C34.2119 25.4052 31.2135 23.1372 27.7794 21.7766ZM20.2269 20.3337C18.6165 20.3337 17.0421 19.8569 15.703 18.9637C14.3639 18.0706 13.3202 16.801 12.7039 15.3156C12.0875 13.8302 11.9263 12.1957 12.2406 10.6188C12.5547 9.04194 13.3303 7.59349 14.4691 6.45663C15.6079 5.31976 17.0587 4.54555 18.6383 4.23189C20.218 3.91821 21.8551 4.07921 23.343 4.69448C24.8309 5.30974 26.1026 6.35166 26.9975 7.68848C27.8922 9.02528 28.3698 10.5969 28.3698 12.2047C28.3698 14.3607 27.5119 16.4283 25.9847 17.9529C24.4578 19.4773 22.3866 20.3337 20.2269 20.3337Z" fill="#3B3F3E"/>
<path d="M27.7794 21.7766C29.7752 20.2091 31.232 18.0596 31.9469 15.6269C32.6621 13.1944 32.5998 10.5998 31.769 8.20414C30.9382 5.80854 29.3801 3.731 27.3114 2.26058C25.2427 0.790182 22.7663 0 20.2269 0C17.6874 0 15.2111 0.790182 13.1424 2.26058C11.0738 3.731 9.51569 5.80854 8.68486 8.20414C7.85402 10.5998 7.79179 13.1944 8.50683 15.6269C9.22188 18.0596 10.6786 20.2091 12.6744 21.7766C9.25457 23.1445 6.27064 25.4131 4.04074 28.3408C1.81082 31.2682 0.418533 34.745 0.0122857 38.4005C-0.0171304 38.6675 0.00640234 38.9374 0.0815406 39.1953C0.156679 39.453 0.281936 39.6936 0.450188 39.9031C0.789969 40.326 1.28416 40.5971 1.82407 40.6563C2.36396 40.7156 2.90536 40.5583 3.32912 40.2191C3.75289 39.8799 4.02431 39.3867 4.08371 38.8475C4.53072 34.8749 6.42821 31.2059 9.41366 28.5416C12.399 25.8773 16.2632 24.4045 20.2676 24.4045C24.2721 24.4045 28.1361 25.8773 31.1217 28.5416C34.107 31.2059 36.0045 34.8749 36.4516 38.8475C36.5069 39.3471 36.7455 39.8082 37.1215 40.1423C37.4975 40.4762 37.9841 40.6593 38.4873 40.6563H38.7112C39.2448 40.5951 39.7325 40.3256 40.0682 39.907C40.4037 39.4881 40.5598 38.954 40.5026 38.4208C40.0945 34.755 38.6947 31.2693 36.4532 28.3371C34.2119 25.4052 31.2135 23.1372 27.7794 21.7766ZM20.2269 20.3337C18.6165 20.3337 17.0421 19.8569 15.703 18.9637C14.3639 18.0706 13.3202 16.801 12.7039 15.3156C12.0875 13.8302 11.9263 12.1957 12.2406 10.6188C12.5547 9.04194 13.3303 7.59349 14.4691 6.45663C15.6079 5.31976 17.0587 4.54555 18.6383 4.23189C20.218 3.91821 21.8551 4.07921 23.343 4.69448C24.8309 5.30974 26.1026 6.35166 26.9975 7.68848C27.8922 9.02528 28.3698 10.5969 28.3698 12.2047C28.3698 14.3607 27.5119 16.4283 25.9847 17.9529C24.4578 19.4773 22.3866 20.3337 20.2269 20.3337Z" stroke="black"/>
</svg>
