<?xml version="1.0" encoding="UTF-8"?>
<!DOCTYPE svg  PUBLIC '-//W3C//DTD SVG 1.1//EN'  'http://www.w3.org/Graphics/SVG/1.1/DTD/svg11.dtd'>
<svg clip-rule="evenodd" fill-rule="evenodd" stroke-linejoin="round" stroke-miterlimit="2" version="1.1" viewBox="0 0 64 64" xmlSpace="preserve" xmlns="http://www.w3.org/2000/svg" xmlnsSerif="http://www.serif.com/"><rect x="-960" y="-256" width="1280" height="800" fill="none"/><g serif:id="Icons"><path d="m13.673 10.345-3.097 3.096 39.853 39.854 3.097-3.097-39.853-39.853z"/><path d="m17.119 19.984 2.915 2.915c-3.191 2.717-5.732 6.099-7.374 9.058l-5e-3 0.01c4.573 7.646 11.829 14.872 20.987 13.776 2.472-0.296 4.778-1.141 6.885-2.35l2.951 2.95c-4.107 2.636-8.815 4.032-13.916 3.342-9.198-1.244-16.719-8.788-21.46-17.648 2.226-4.479 5.271-8.764 9.017-12.053zm6.63-4.32c2.572-1.146 5.355-1.82 8.327-1.868 0.165-1e-3 2.124 0.092 3.012 0.238 0.557 0.092 1.112 0.207 1.659 0.35 8.725 2.273 15.189 9.649 19.253 17.248-1.705 3.443-3.938 6.803-6.601 9.682l-2.827-2.827c1.967-2.12 3.607-4.48 4.87-6.769 0 0-1.27-2.042-2.233-3.324-0.619-0.824-1.27-1.624-1.954-2.395-0.54-0.608-2.637-2.673-3.136-3.103-3.348-2.879-7.279-5.138-11.994-5.1-1.826 0.029-3.582 0.389-5.249 0.995l-3.127-3.127z" fill-rule="nonzero"/><path d="m25.054 27.92 2.399 2.398c-0.157 0.477-0.243 0.987-0.243 1.516 0 2.672 2.169 4.841 4.841 4.841 0.529 0 1.039-0.085 1.516-0.243l2.399 2.399c-1.158 0.65-2.494 1.02-3.915 1.02-4.425 0-8.017-3.592-8.017-8.017 0-1.421 0.371-2.756 1.02-3.914zm6.849-4.101c0.049-1e-3 0.099-2e-3 0.148-2e-3 4.425 0 8.017 3.593 8.017 8.017 0 0.05 0 0.099-1e-3 0.148l-8.164-8.163z"/></g></svg>
